<svg viewBox="0 0 378 76" xmlns="http://www.w3.org/2000/svg"><linearGradient id="prefix__a" x1="306.65" x2="368.31" y1="21.712" y2="54.276" gradientUnits="userSpaceOnUse"><stop stop-color="#f56300" offset="0"/><stop stop-color="#ffa365" offset="1"/></linearGradient><path d="M309.52 60.919c-8.676-4.493-12.558-14.128-12.558-22.919 0-20.721 14.756-37.047 39.558-37.047 33.593 0 41.442 28.256 41.442 41.128 0 21.663-10.674 32.965-23.86 32.965-9.105 0-11.179-8.621-18.523-12.244-9.236-4.556-17.305 2.65-26.058-1.884z" fill="url(#prefix__a)"/><path d="M287.11 40.518c.378.168.567.42.567.756 0 .042-.01.094-.032.158a9.87 9.87 0 01-.157.409l-5.922 12.474c-.168.378-.42.567-.756.567a.743.743 0 01-.315-.095c-.126-.063-.315-.22-.567-.472-.21-.21-.63-.315-1.26-.315h-31.563c-.63 0-.945-.315-.945-.945v-1.89c0-.63.315-.945.945-.945 3.108 0 4.662-1.995 4.662-5.985V16.578c0-3.99-1.554-5.985-4.662-5.985-.63 0-.945-.315-.945-.945v-1.89c0-.672.315-1.008.945-1.008h19.089c.798 0 1.197.336 1.197 1.008v1.89c0 .63-.378.945-1.134.945h-4.473v32.949c0 3.99 1.449 5.985 4.347 5.985h2.457c3.066 0 5.88-.662 8.442-1.985 2.562-1.323 4.746-3.811 6.552-7.465l.189-.378c.21-.378.462-.567.756-.567.21 0 .399.063.567.189zM220.204 5.994c3.318 0 6.436.651 9.355 1.953a24.336 24.336 0 017.687 5.386 25.256 25.256 0 015.165 7.907c1.24 2.982 1.859 6.153 1.859 9.513 0 3.696-.725 7.109-2.174 10.237-1.449 3.129-3.454 5.806-6.016 8.033-2.562 2.225-5.502 3.842-8.82 4.85a8.798 8.798 0 00-2.993 1.45c-.903.671-1.354 1.7-1.354 3.086 0 1.303.504 2.279 1.512 2.93s2.436.977 4.284.977a18.1 18.1 0 005.103-.756 94.352 94.352 0 005.229-1.701c.252-.084.42-.127.504-.127.336 0 .588.19.756.567l1.386 2.71a.686.686 0 01.126.252c.042.126.063.23.063.315 0 .336-.19.588-.567.755a62.364 62.364 0 01-6.584 2.772c-2.247.798-4.672 1.197-7.276 1.197-3.276 0-5.828-.43-7.655-1.291s-3.118-1.932-3.874-3.213c-.756-1.281-1.134-2.573-1.134-3.875 0-1.092.22-2.089.661-2.992a7.192 7.192 0 011.859-2.363 23.005 23.005 0 01-8.064-2.866 24.623 24.623 0 01-6.489-5.481 25.256 25.256 0 01-4.316-7.434c-1.029-2.751-1.543-5.639-1.543-8.663 0-3.276.588-6.363 1.764-9.26a24.635 24.635 0 014.945-7.718c2.121-2.247 4.589-4 7.403-5.26 2.814-1.26 5.88-1.89 9.198-1.89zm-13.923 20.79c0 1.806.19 3.738.567 5.796a31.765 31.765 0 001.733 6.016 22.329 22.329 0 002.992 5.324c1.218 1.596 2.646 2.877 4.284 3.843 1.638.966 3.528 1.449 5.67 1.449 2.856 0 5.282-.64 7.277-1.921s3.507-3.066 4.536-5.355c1.028-2.29 1.543-4.925 1.543-7.907 0-1.638-.178-3.465-.536-5.48a31.863 31.863 0 00-1.7-6.017 24.54 24.54 0 00-2.961-5.481c-1.197-1.66-2.636-2.993-4.316-4-1.68-1.009-3.633-1.513-5.859-1.513-4.2 0-7.455 1.397-9.765 4.19-2.31 2.793-3.465 6.478-3.465 11.057zM188.2 21.051a2.887 2.887 0 00-.378.157.839.839 0 01-.378.095c-.336 0-.693-.252-1.071-.756-2.688-3.36-5.334-5.775-7.938-7.245s-5.292-2.205-8.064-2.205c-1.68 0-3.118.441-4.316 1.323-1.197.882-1.795 2.268-1.795 4.158 0 1.554.483 2.835 1.449 3.843.966 1.008 2.216 1.837 3.748 2.488a41.574 41.574 0 004.694 1.67c2.394.672 4.757 1.428 7.087 2.268 2.332.84 4.442 1.837 6.332 2.992 1.89 1.155 3.402 2.562 4.536 4.221 1.134 1.66 1.7 3.665 1.7 6.017 0 2.856-.724 5.397-2.173 7.623s-3.538 3.969-6.268 5.229c-2.73 1.26-6.027 1.89-9.891 1.89-1.89 0-3.665-.241-5.324-.725a30.462 30.462 0 01-4.82-1.858c-.335-.168-.65-.252-.944-.252-.378 0-.567.21-.567.63 0 .126.042.357.126.693.126.294.189.546.189.756 0 .462-.357.693-1.071.693h-3.15c-.756 0-1.281-.294-1.575-.882l-7.623-14.301c-.168-.336-.252-.588-.252-.756 0-.462.23-.819.693-1.071l2.772-1.575c.126-.084.252-.147.378-.189a1.19 1.19 0 01.378-.063c.42 0 .777.252 1.07.756 2.857 4.326 6.017 7.539 9.482 9.639 3.465 2.1 7.004 3.15 10.615 3.15 2.73 0 4.83-.62 6.3-1.859 1.47-1.239 2.205-2.803 2.205-4.693 0-1.848-.462-3.297-1.386-4.347-.924-1.05-2.352-1.932-4.284-2.646s-4.41-1.512-7.434-2.394a55.579 55.579 0 01-6.11-2.142c-2.017-.84-3.844-1.859-5.482-3.056-1.638-1.197-2.95-2.625-3.937-4.284-.987-1.659-1.48-3.622-1.48-5.89 0-2.772.703-5.061 2.11-6.867s3.307-3.14 5.701-4c2.394-.862 5.103-1.292 8.127-1.292 2.352 0 4.347.294 5.985.882 1.638.588 2.898 1.134 3.78 1.638.714.42 1.197.63 1.45.63.21 0 .314-.126.314-.378 0-.21-.052-.504-.157-.882a4.454 4.454 0 01-.158-1.197c0-.63.378-.945 1.134-.945h2.268c.756 0 1.281.357 1.575 1.07l4.41 11.278c.084.168.147.325.19.472s.062.284.062.41c0 .378-.23.693-.693.945zm-39.816 28.413a.922.922 0 01.189.567c0 .252-.168.483-.504.693l-1.89 1.197c-1.134.714-2.499 1.376-4.095 1.985-1.596.609-3.192.913-4.788.913a7.51 7.51 0 01-3.56-.882c-1.112-.588-2.005-1.585-2.677-2.993-.672-1.407-1.008-3.349-1.008-5.827V33.462c0-1.134-.063-2.257-.189-3.37-.126-1.114-.515-2.027-1.166-2.741s-1.732-1.071-3.244-1.071c-.63 0-.945-.315-.945-.945v-1.89c0-.63.315-.945.945-.945h4.599v-4.221c0-.546.189-.924.567-1.134.924-.504 2.142-1.208 3.654-2.11a20.622 20.622 0 004.032-3.119.427.427 0 01.315-.126h.126c.084 0 .126.063.126.189V22.5h8.442c.63 0 .945.315.945.945v2.709c0 .63-.315.945-.945.945h-8.442v18.018c0 1.638.252 2.761.756 3.37.504.61 1.134.914 1.89.914.714 0 1.47-.2 2.268-.599a26.66 26.66 0 002.205-1.228c.294-.168.525-.252.693-.252.252 0 .483.168.693.504zm-29.169-7.119c0 1.512.231 2.866.693 4.064.462 1.196 1.47 1.9 3.024 2.11.504.042.756.315.756.819v2.079c0 .588-.315.882-.945.882-2.058 0-3.77.116-5.134.347-1.366.23-2.541.525-3.528.882-.987.357-1.964.745-2.93 1.165a1.015 1.015 0 01-.441.126h-.189c-.084 0-.126-.084-.126-.252 0-.168.042-.577.126-1.228l.284-2.205c.105-.82.199-1.523.283-2.11-.21.545-.661 1.28-1.354 2.204-.694.924-1.701 1.754-3.024 2.489-1.323.735-3.056 1.102-5.198 1.102-1.428 0-2.95-.294-4.567-.882-1.617-.588-3.14-1.533-4.568-2.835-1.428-1.302-2.593-3.013-3.496-5.134-.903-2.121-1.355-4.715-1.355-7.78 0-3.907.704-7.067 2.11-9.482 1.408-2.415 3.235-4.19 5.482-5.324a15.657 15.657 0 017.15-1.7c2.058 0 3.948.314 5.67.944 1.722.63 3.234 1.533 4.536 2.71a42.383 42.383 0 002.804-1.292 13.006 13.006 0 001.984-1.229c.21-.168.43-.336.662-.504.23-.168.493-.336.787-.504.126-.084.231-.126.315-.126h.063c.084 0 .126.042.126.126zm-8.82-9.891c-.126-.84-.43-1.774-.913-2.804-.483-1.028-1.208-1.91-2.174-2.645-.966-.736-2.268-1.103-3.906-1.103-2.016 0-3.59.494-4.725 1.48-1.134.987-1.921 2.258-2.362 3.812-.441 1.554-.662 3.213-.662 4.977 0 4.032.809 7.224 2.426 9.576 1.617 2.352 3.706 3.528 6.268 3.528 1.512 0 2.699-.325 3.56-.976s1.48-1.313 1.858-1.985c.378-.672.588-1.07.63-1.197zM86.518 50.22c.63 0 .945.315.945.945v1.89c0 .63-.315.945-.945.945H69.382c-.63 0-.945-.315-.945-.945v-1.89c0-.63.315-.945.945-.945h.19c1.175 0 2.015-.577 2.52-1.732.503-1.156.755-2.573.755-4.253V33.462c0-2.1-.273-3.664-.819-4.694-.546-1.028-1.785-1.543-3.717-1.543-1.554 0-3.076.462-4.567 1.386-1.491.924-2.53 2.058-3.119 3.402v12.222c0 1.68.389 3.098 1.166 4.253.777 1.154 1.942 1.732 3.496 1.732h.126c.63 0 .945.315.945.945v1.89c0 .63-.315.945-.945.945H47.08c-.63 0-.945-.315-.945-.945v-1.89c0-.63.315-.945.945-.945h.126c1.554 0 2.709-.577 3.465-1.732.756-1.156 1.134-2.573 1.134-4.253V20.61a23.61 23.61 0 00-.22-3.276c-.147-1.05-.473-1.942-.977-2.678-.504-.734-1.344-1.165-2.52-1.291-.504-.042-.756-.315-.756-.819v-2.142c0-.252.074-.43.22-.535.147-.105.368-.2.662-.284a66.305 66.305 0 006.016-2.394 31.126 31.126 0 005.828-3.465c.126-.084.231-.126.315-.126h.063c.084 0 .126.042.126.126v24.192c.378-.756 1.019-1.617 1.922-2.583.902-.966 2.068-1.816 3.496-2.551 1.428-.735 3.108-1.103 5.04-1.103 1.974 0 3.77.315 5.387.945 1.617.63 2.908 1.733 3.874 3.308.966 1.575 1.449 3.79 1.449 6.646v11.655c0 1.68.378 3.098 1.134 4.253.756 1.155 1.911 1.732 3.465 1.732zM43.993 38.88c.252.126.462.242.63.346a.52.52 0 01.252.473c0 .084-.042.252-.126.504-.672 1.638-1.585 3.307-2.74 5.008-1.155 1.701-2.583 3.287-4.284 4.757-1.701 1.47-3.717 2.646-6.048 3.528-2.332.882-5.009 1.323-8.033 1.323-5.04 0-9.303-1.05-12.789-3.15-3.486-2.1-6.132-4.966-7.938-8.6C1.111 39.436.208 35.373.208 30.88c0-2.1.231-4.294.693-6.583a28.415 28.415 0 012.268-6.71 20.76 20.76 0 014.253-5.89c1.785-1.743 4-3.13 6.646-4.158 2.646-1.03 5.775-1.544 9.387-1.544 3.024 0 5.628.378 7.812 1.134 2.184.756 4.011 1.712 5.481 2.867s2.646 2.362 3.528 3.622c.882 1.26 1.512 2.436 1.89 3.528.378 1.092.567 1.911.567 2.457 0 .588-.357 1.008-1.071 1.26l-7.686 2.71c-.42.167-.798.251-1.134.251-.504 0-.756-.21-.756-.63 0-.084.021-.399.063-.945.042-.546.063-.924.063-1.134 0-1.512-.273-3.045-.819-4.599-.546-1.554-1.491-2.866-2.835-3.937-1.344-1.071-3.213-1.607-5.607-1.607-2.268 0-4.168.546-5.701 1.638-1.533 1.092-2.762 2.52-3.686 4.284A20.983 20.983 0 0011.58 22.5c-.4 1.974-.599 3.843-.599 5.607 0 4.074.483 7.655 1.45 10.742.965 3.087 2.467 5.502 4.504 7.245 2.037 1.743 4.609 2.615 7.717 2.615s5.66-.546 7.655-1.638c1.995-1.092 3.59-2.426 4.788-4 1.197-1.576 2.131-3.12 2.803-4.631.252-.546.609-.82 1.071-.82.21 0 .483.085.82.253z" fill="#fff" fill-rule="evenodd"/></svg>