<?xml version="1.0" encoding="UTF-8"?>
<svg viewBox="0 0 378 76" xmlns="http://www.w3.org/2000/svg">
<g>
<linearGradient id="a" x1="306.68" x2="368.34" y1="21.712" y2="54.276" gradientUnits="userSpaceOnUse">
<stop stop-color="#f56300" offset="0"/>
<stop stop-color="#ffa365" offset="1"/>
</linearGradient>
<path d="m309.56 60.919c-8.6763-4.4934-12.558-14.128-12.558-22.919 0-20.721 14.756-37.047 39.558-37.047 33.593 0 41.442 28.256 41.442 41.128 0 21.663-10.674 32.965-23.86 32.965-9.1046 0-11.179-8.6212-18.523-12.244-9.2358-4.5561-17.305 2.6495-26.058-1.8837z" fill="url(#a)"/>
<path d="m287.11 40.518c0.37793 0.16797 0.56689 0.41998 0.56689 0.75598 0 0.041992-0.010498 0.094482-0.031494 0.15753-0.020996 0.062988-0.073486 0.19946-0.15747 0.40948l-5.922 12.474c-0.16797 0.37799-0.42004 0.56702-0.75598 0.56702-0.083985 0-0.18896-0.031494-0.31506-0.094543-0.12598-0.062989-0.31494-0.22046-0.56689-0.47247-0.21008-0.21002-0.63-0.315-1.26-0.315h-31.563c-0.63 0-0.94507-0.315-0.94507-0.94501v-1.89c0-0.63 0.31506-0.94501 0.94507-0.94501 3.1079 0 4.662-1.9949 4.662-5.985v-27.657c0-3.9901-1.5541-5.985-4.662-5.985-0.63 0-0.94507-0.315-0.94507-0.94501v-1.89c0-0.672 0.31506-1.008 0.94507-1.008h19.089c0.79797 0 1.1969 0.336 1.1969 1.008v1.89c0 0.63-0.37793 0.94501-1.1339 0.94501h-4.473v32.949c0 3.9901 1.449 5.985 4.347 5.985h2.4569c3.066 0 5.88-0.6615 8.442-1.9845 2.562-1.323 4.746-3.8115 6.552-7.4655l0.18896-0.37805c0.21008-0.37799 0.46204-0.56696 0.7561-0.56696 0.20996 0 0.39893 0.062988 0.56689 0.18896zm-66.906-34.524c3.318 0 6.4364 0.651 9.3555 1.953 2.9189 1.302 5.481 3.0975 7.686 5.3865 2.205 2.289 3.9269 4.9245 5.1659 7.9065 1.239 2.982 1.8585 6.153 1.8585 9.513 0 3.696-0.72449 7.1085-2.1735 10.237-1.449 3.129-3.4545 5.8065-6.0165 8.0325-2.562 2.226-5.502 3.843-8.8201 4.851-1.0919 0.29401-2.0895 0.77698-2.9924 1.449-0.90308 0.672-1.3545 1.701-1.3545 3.087 0 1.3021 0.50391 2.2785 1.512 2.9295s2.436 0.9765 4.2841 0.9765c1.6799 0 3.381-0.25195 5.1029-0.75598 1.722-0.50403 3.4651-1.071 5.229-1.701 0.25208-0.083985 0.42004-0.12604 0.50403-0.12604 0.33606 0 0.58801 0.18903 0.75598 0.56702l1.386 2.709c0.041992 0.042053 0.083984 0.12604 0.1261 0.25201 0.041992 0.12604 0.062988 0.23102 0.062988 0.315 0 0.336-0.18909 0.58801-0.56702 0.75598-2.1421 1.05-4.3365 1.974-6.5835 2.772-2.2471 0.79797-4.6725 1.197-7.2765 1.197-3.276 0-5.8275-0.43054-7.6545-1.2915-1.827-0.86102-3.1185-1.932-3.8745-3.213-0.75598-1.281-1.134-2.5725-1.134-3.8745 0-1.092 0.22058-2.0895 0.6615-2.9925 0.44104-0.90302 1.0605-1.6905 1.8585-2.3625-2.898-0.46204-5.5859-1.4175-8.064-2.8665-2.478-1.449-4.641-3.276-6.489-5.481-1.848-2.205-3.2865-4.683-4.3156-7.434-1.0289-2.751-1.5435-5.6385-1.5435-8.6625 0-3.276 0.58801-6.363 1.764-9.261 1.176-2.898 2.8245-5.4705 4.9454-7.7175 2.1211-2.247 4.5885-4.0005 7.4026-5.2605 2.814-1.2599 5.8799-1.89 9.198-1.89zm-13.923 20.79c0 1.806 0.18909 3.738 0.56702 5.796 0.37805 2.058 0.95557 4.0635 1.7325 6.0165 0.77698 1.953 1.7745 3.7275 2.9924 5.3235 1.218 1.596 2.646 2.877 4.2841 3.843 1.6381 0.966 3.528 1.449 5.67 1.449 2.856 0 5.2815-0.64044 7.2765-1.9214s3.507-3.066 4.536-5.355c1.0289-2.289 1.5435-4.9245 1.5435-7.9065 0-1.638-0.17847-3.465-0.53552-5.481-0.35693-2.016-0.92395-4.0215-1.7009-6.0165-0.7771-1.995-1.764-3.822-2.9611-5.481-1.197-1.659-2.6355-2.9925-4.3156-4.0005-1.6799-1.008-3.6329-1.512-5.8589-1.512-4.2001 0-7.4551 1.3965-9.765 4.1895-2.3101 2.793-3.4651 6.4785-3.4651 11.057zm-18.081-5.733c-0.12598 0.041993-0.25208 0.094483-0.37805 0.15747-0.12598 0.062988-0.25195 0.094483-0.37793 0.094483-0.33606 0-0.69299-0.25195-1.071-0.75598-2.688-3.36-5.334-5.775-7.938-7.245s-5.292-2.205-8.064-2.205c-1.6801 0-3.1185 0.44104-4.3156 1.323-1.197 0.88202-1.7955 2.268-1.7955 4.158 0 1.554 0.48303 2.835 1.4491 3.843 0.96594 1.008 2.2155 1.8375 3.7484 2.4885 1.5331 0.651 3.0975 1.2075 4.6935 1.6695 2.394 0.672 4.7566 1.428 7.0875 2.268 2.3311 0.84003 4.4415 1.8375 6.3315 2.9925 1.89 1.155 3.402 2.562 4.536 4.221 1.134 1.659 1.7009 3.6645 1.7009 6.0165 0 2.856-0.72449 5.397-2.1735 7.623-1.449 2.226-3.5385 3.969-6.2684 5.229-2.7301 1.26-6.0271 1.89-9.8911 1.89-1.89 0-3.6644-0.24146-5.3235-0.72449-1.6589-0.48297-3.2655-1.1025-4.8195-1.8585-0.33606-0.16803-0.651-0.25201-0.94495-0.25201-0.37805 0-0.56702 0.20996-0.56702 0.63 0 0.12598 0.041992 0.35699 0.12598 0.69299 0.12598 0.29401 0.18896 0.54602 0.18896 0.75598 0 0.46204-0.35693 0.69299-1.0709 0.69299h-3.15c-0.75598 0-1.281-0.29401-1.5751-0.88196l-7.6229-14.301c-0.16809-0.336-0.25208-0.58801-0.25208-0.75598 0-0.46204 0.23108-0.81903 0.69299-1.071l2.7721-1.575c0.12598-0.084046 0.25195-0.14703 0.37793-0.18903 0.12598-0.041993 0.25208-0.062989 0.37805-0.062989 0.41992 0 0.77698 0.25202 1.0709 0.75598 2.8561 4.326 6.0165 7.539 9.4816 9.639 3.465 2.1 7.0034 3.15 10.615 3.15 2.73 0 4.83-0.61951 6.3-1.8585 1.47-1.239 2.205-2.8035 2.205-4.6935 0-1.848-0.46204-3.297-1.386-4.347-0.92407-1.05-2.3521-1.932-4.2841-2.646-1.932-0.71399-4.4099-1.512-7.434-2.394-2.058-0.58801-4.095-1.302-6.111-2.142-2.016-0.84003-3.843-1.8585-5.4811-3.0555-1.6379-1.197-2.9504-2.625-3.9375-4.284-0.98694-1.659-1.4805-3.6225-1.4805-5.8905 0-2.772 0.70349-5.061 2.1105-6.867 1.407-1.806 3.3075-3.1395 5.7015-4.0005 2.394-0.86102 5.103-1.2915 8.127-1.2915 2.3521 0 4.347 0.29401 5.985 0.88196 1.6381 0.58801 2.8981 1.134 3.78 1.638 0.71399 0.42004 1.197 0.63 1.449 0.63 0.21008 0 0.31506-0.12598 0.31506-0.37799 0-0.21002-0.05249-0.50397-0.15747-0.88202-0.10498-0.37799-0.15759-0.77698-0.15759-1.197 0-0.63 0.37805-0.94501 1.134-0.94501h2.2681c0.75598 0 1.281 0.357 1.575 1.071l4.41 11.277c0.083985 0.16797 0.14697 0.3255 0.18896 0.47247s0.062988 0.28351 0.062988 0.40948c0 0.37799-0.23096 0.69299-0.69299 0.94501zm-39.816 28.413c0.12598 0.16803 0.18896 0.357 0.18896 0.56702 0 0.25201-0.16797 0.48297-0.50391 0.69299l-1.89 1.197c-1.134 0.71399-2.499 1.3755-4.095 1.9845-1.5961 0.60901-3.192 0.91345-4.7881 0.91345-1.26 0-2.4464-0.29395-3.5594-0.88196-1.113-0.58801-2.0055-1.5855-2.6775-2.9925-0.672-1.407-1.0081-3.3495-1.0081-5.8275v-11.655c0-1.134-0.062989-2.2574-0.18896-3.3705-0.12598-1.113-0.51453-2.0265-1.1655-2.7405s-1.7324-1.071-3.2445-1.071c-0.63 0-0.94495-0.315-0.94495-0.94501v-1.89c0-0.63 0.31494-0.94501 0.94495-0.94501h4.599v-4.221c0-0.54602 0.18896-0.92401 0.56702-1.134 0.92407-0.50403 2.142-1.2075 3.6541-2.1105 1.512-0.90302 2.856-1.9425 4.032-3.1185 0.083985-0.084046 0.18896-0.12604 0.31494-0.12604h0.12598c0.084107 0 0.1261 0.063049 0.1261 0.18903v10.521h8.442c0.63 0 0.94495 0.315 0.94495 0.94501v2.709c0 0.63-0.31494 0.94501-0.94495 0.94501h-8.442v18.018c0 1.638 0.25195 2.7615 0.75598 3.3705 0.50403 0.60901 1.134 0.91351 1.89 0.91351 0.71399 0 1.47-0.19952 2.2679-0.59851 0.79797-0.39899 1.533-0.80847 2.2051-1.2285 0.29394-0.16797 0.5249-0.25195 0.69299-0.25195 0.25195 0 0.48291 0.16797 0.69299 0.50397zm-29.169-7.119c0 1.512 0.23096 2.8665 0.69299 4.0635 0.46191 1.197 1.47 1.9005 3.0239 2.1105 0.50403 0.041992 0.7561 0.315 0.7561 0.81903v2.079c0 0.58801-0.31506 0.88202-0.94507 0.88202-2.058 0-3.7695 0.11548-5.1345 0.3465s-2.541 0.52496-3.528 0.88202c-0.98706 0.35699-1.9635 0.74548-2.9296 1.1655-0.16797 0.083985-0.31494 0.12598-0.44092 0.12598h-0.18909c-0.083984 0-0.12598-0.083985-0.12598-0.25195 0-0.16803 0.041992-0.57752 0.12598-1.2285 0.084107-0.651 0.17859-1.386 0.28357-2.205 0.10498-0.81897 0.19946-1.5225 0.28345-2.1105-0.20996 0.54602-0.6615 1.281-1.3545 2.205-0.69299 0.92395-1.7009 1.7535-3.0239 2.4885-1.323 0.73498-3.0555 1.1025-5.1975 1.1025-1.4281 0-2.9506-0.29395-4.5675-0.88196-1.6171-0.58801-3.1395-1.533-4.5675-2.835-1.428-1.302-2.5935-3.0135-3.4966-5.1345-0.90295-2.121-1.3545-4.7145-1.3545-7.7805 0-3.906 0.70349-7.0665 2.1106-9.4815 1.407-2.415 3.2339-4.1895 5.481-5.3235 2.2471-1.134 4.6305-1.701 7.1505-1.701 2.058 0 3.948 0.31494 5.67 0.94495 1.7219 0.63 3.2339 1.533 4.5359 2.709 1.092-0.46204 2.0265-0.89252 2.8036-1.2915 0.77698-0.39905 1.4385-0.80853 1.9845-1.2285 0.20996-0.16803 0.43042-0.336 0.6615-0.50403 0.23096-0.16797 0.49341-0.336 0.78748-0.50397 0.12598-0.083985 0.23096-0.12598 0.31494-0.12598h0.063111c0.083984 0 0.12598 0.041992 0.12598 0.12598zm-8.8201-9.891c-0.12598-0.83996-0.43042-1.7745-0.91345-2.8035-0.48303-1.029-1.2075-1.911-2.1735-2.646-0.96606-0.73505-2.2681-1.1025-3.906-1.1025-2.0161 0-3.5911 0.49353-4.7251 1.4805-1.1339 0.987-1.9215 2.2575-2.3624 3.8115-0.44104 1.554-0.6615 3.213-0.6615 4.9771 0 4.032 0.80847 7.2239 2.4254 9.576 1.6171 2.352 3.7065 3.528 6.2686 3.528 1.512 0 2.6985-0.3255 3.5594-0.9765 0.86108-0.651 1.4806-1.3125 1.8585-1.9845 0.37805-0.67206 0.58801-1.071 0.63-1.197zm-23.877 17.766c0.63 0 0.94495 0.315 0.94495 0.94501v1.89c0 0.63-0.31494 0.94501-0.94495 0.94501h-17.136c-0.63 0-0.94507-0.315-0.94507-0.94501v-1.89c0-0.63 0.31506-0.94501 0.94507-0.94501h0.18896c1.176 0 2.016-0.57745 2.52-1.7325 0.50403-1.155 0.75598-2.5725 0.75598-4.2525v-10.773c0-2.1-0.27295-3.6645-0.81897-4.6935-0.54602-1.029-1.785-1.5435-3.717-1.5435-1.554 0-3.0764 0.46204-4.5675 1.386-1.491 0.92401-2.5305 2.058-3.1185 3.402v12.222c0 1.68 0.38855 3.0975 1.1655 4.2525 0.77698 1.155 1.9425 1.7325 3.4966 1.7325h0.12598c0.63 0 0.94495 0.315 0.94495 0.94501v1.89c0 0.63-0.31494 0.94501-0.94495 0.94501h-18.333c-0.63 0-0.94507-0.315-0.94507-0.94501v-1.89c0-0.63 0.31506-0.94501 0.94507-0.94501h0.12598c1.554 0 2.709-0.57745 3.465-1.7325 0.75598-1.155 1.134-2.5725 1.134-4.2525v-23.625c0-1.134-0.073486-2.226-0.22046-3.276-0.1471-1.05-0.47253-1.9425-0.97656-2.6775-0.50403-0.73498-1.344-1.1655-2.52-1.2915-0.50391-0.041992-0.75598-0.315-0.75598-0.81897v-2.142c0-0.25201 0.073487-0.43048 0.22058-0.53546 0.14697-0.10504 0.36743-0.19952 0.6615-0.28351 1.974-0.672 3.9794-1.47 6.0165-2.394 2.037-0.92401 3.9795-2.079 5.8275-3.465 0.12598-0.083984 0.23096-0.12604 0.31494-0.12604h0.062988c0.083985 0 0.12598 0.042053 0.12598 0.12604v24.192c0.37805-0.75604 1.0186-1.617 1.9215-2.583 0.90308-0.966 2.0685-1.8165 3.4966-2.5515 1.428-0.73498 3.1079-1.1025 5.0399-1.1025 1.974 0 3.7695 0.31494 5.3865 0.94495 1.6171 0.63 2.9086 1.7325 3.8745 3.3075 0.96606 1.575 1.4491 3.7905 1.4491 6.6465v11.655c0 1.68 0.37793 3.0975 1.1339 4.2525 0.75598 1.155 1.911 1.7325 3.4651 1.7325zm-42.525-11.34c0.25195 0.12598 0.46204 0.24152 0.63 0.3465 0.16797 0.10498 0.25195 0.26251 0.25195 0.47247 0 0.084045-0.041992 0.25201-0.12598 0.50403-0.672 1.638-1.5854 3.3075-2.7405 5.0085-1.155 1.701-2.583 3.2865-4.2839 4.7565-1.701 1.47-3.717 2.646-6.0481 3.528-2.3309 0.88202-5.0084 1.323-8.0325 1.323-5.04 0-9.303-1.05-12.789-3.15-3.4861-2.1-6.1321-4.9665-7.9381-8.5995-1.8059-3.6331-2.709-7.6965-2.709-12.19 0-2.1 0.23108-4.2945 0.69299-6.5836 0.46204-2.289 1.218-4.5255 2.2681-6.7095 1.05-2.184 2.4675-4.1475 4.2524-5.8905 1.785-1.743 4.0005-3.129 6.6465-4.158 2.6461-1.029 5.775-1.5435 9.3871-1.5435 3.024 0 5.6279 0.37799 7.812 1.134 2.184 0.75604 4.011 1.7115 5.481 2.8665s2.646 2.3625 3.528 3.6225c0.88208 1.26 1.5121 2.436 1.89 3.528 0.37805 1.092 0.56702 1.9109 0.56702 2.457 0 0.58801-0.35693 1.008-1.0709 1.26l-7.686 2.709c-0.42004 0.16803-0.79797 0.25201-1.134 0.25201-0.50403 0-0.75598-0.21002-0.75598-0.63 0-0.083984 0.020996-0.39899 0.062988-0.94501 0.041992-0.54596 0.062988-0.92401 0.062988-1.134 0-1.512-0.27295-3.045-0.81897-4.599-0.54602-1.554-1.491-2.8665-2.835-3.9375-1.3441-1.071-3.213-1.6065-5.6071-1.6065-2.2681 0-4.1685 0.54596-5.7015 1.638-1.533 1.092-2.7615 2.52-3.6854 4.284-0.92407 1.764-1.5856 3.633-1.9845 5.607-0.39905 1.974-0.59851 3.843-0.59851 5.607 0 4.074 0.48291 7.6545 1.449 10.742 0.96594 3.087 2.4675 5.502 4.5045 7.245 2.037 1.743 4.6095 2.6145 7.7175 2.6145 3.1079 0 5.6594-0.54602 7.6544-1.638 1.995-1.092 3.5911-2.4255 4.7881-4.0005 1.1969-1.575 2.1315-3.1185 2.8035-4.6305 0.25195-0.54602 0.60901-0.81903 1.0709-0.81903 0.21008 0 0.48303 0.083984 0.81909 0.25201z" fill-rule="evenodd"/>
</g>
</svg>
